<?xml version="1.0" standalone="no"?>
<!DOCTYPE svg PUBLIC "-//W3C//DTD SVG 20010904//EN"
 "http://www.w3.org/TR/2001/REC-SVG-20010904/DTD/svg10.dtd">
<svg version="1.0" xmlns="http://www.w3.org/2000/svg"
 width="512.000000pt" height="512.000000pt" viewBox="0 0 512.000000 512.000000"
 preserveAspectRatio="xMidYMid meet">
<metadata>
Created by potrace 1.14, written by Peter Selinger 2001-2017
</metadata>
<g transform="translate(0.000000,512.000000) scale(0.100000,-0.100000)"
fill="#000000" stroke="none">
<path d="M2360 5114 c-398 -36 -784 -159 -1103 -349 -539 -323 -924 -799
-1123 -1388 -94 -278 -128 -498 -128 -817 0 -251 10 -355 60 -577 112 -503
406 -1000 791 -1335 404 -352 846 -553 1388 -630 119 -17 512 -16 635 1 258
35 555 121 771 223 583 275 1048 768 1282 1358 315 792 227 1669 -239 2377
-398 604 -1044 1010 -1776 1119 -99 14 -466 26 -558 18z m574 -1286 c18 -42
917 -2527 924 -2551 4 -16 -15 -17 -329 -15 l-334 3 -76 225 -76 225 -485 3
-486 2 -77 -230 -78 -230 -330 0 c-309 0 -329 1 -325 18 7 24 907 2509 923
2550 l14 32 361 0 361 0 13 -32z"/>
<path d="M2397 2683 c-87 -256 -156 -468 -154 -470 2 -2 145 -2 318 -1 l315 3
-158 464 c-86 255 -158 465 -160 467 -2 2 -75 -207 -161 -463z"/>
</g>
</svg>
